#!OML:ASF F:\VICON\USERDATA\INSTALL\rory3\rory3.ASF
:FULLY-SPECIFIED
:DEGREES
498
root 1.13979 18.655 2.24934 6.70553 -4.68486 2.45324
lowerback 8.9539 -0.233151 -0.296583
upperback 6.39714 -0.337518 -0.434945
thorax 1.60838 -0.173897 -0.25765
lowerneck 4.19877 0.415047 -4.00955
upperneck 34.8148 -0.808327 5.24402
head 10.5178 -0.391051 2.56761
rclavicle -1.88845e-015 5.36719e-015
rhumerus 49.4757 -33.1417 -84.3733
rradius 102.64
rwrist 17.6035
rhand -55.8838 -8.84231
rfingers 7.12502
rthumb -28.2252 -36.7367
lclavicle -1.88845e-015 5.36719e-015
lhumerus -19.1317 -15.5956 86.4419
lradius 63.5607
lwrist -12.804
lhand -12.0164 28.5732
lfingers 7.12502
lthumb 14.0412 58.0789
rfemur -18.9011 16.4807 14.3114
rtibia 32.1778
rfoot -19.5629 -11.94
rtoes -3.12369
lfemur -29.8082 -6.44417 -6.08582
ltibia 24.8993
lfoot 6.70623 13.377
ltoes -10.1659
499
root 1.17512 18.6514 2.26506 7.04902 -4.49687 2.33503
lowerback 8.95569 -0.200398 -0.317221
upperback 6.49328 -0.294878 -0.415972
thorax 1.70811 -0.153567 -0.22996
lowerneck 4.23899 0.427946 -4.00231
upperneck 34.7226 -0.75285 5.14726
head 10.471 -0.372364 2.53221
rclavicle 6.85807e-015 8.34896e-015
rhumerus 50.2966 -33.218 -84.246
rradius 100.553
rwrist 18.4336
rhand -55.5237 -7.5228
rfingers 7.12502
rthumb -27.8809 -35.4735
lclavicle 6.85807e-015 8.34896e-015
lhumerus -18.3056 -15.7738 86.5081
lradius 61.804
lwrist -12.8233
lhand -12.1097 28.3997
lfingers 7.12502
lthumb 13.9513 57.9116
rfemur -19.2674 16.3403 14.2302
rtibia 32.3017
rfoot -19.6567 -11.9201
rtoes -2.9632
lfemur -29.9685 -7.09069 -5.89091
ltibia 24.5278
lfoot 6.39049 13.7479
ltoes -10.2032
500
root 1.21396 18.6379 2.28427 7.32784 -4.30382 2.32339
lowerback 8.94541 -0.132986 -0.422044
upperback 6.6117 -0.211355 -0.45377
thorax 1.83797 -0.11448 -0.216597
lowerneck 4.38793 0.38821 -3.80719
upperneck 34.5141 -0.741943 4.91491
head 10.3612 -0.364086 2.40742
rclavicle -1.13307e-014 -6.36111e-015
rhumerus 50.9917 -33.363 -83.9582
rradius 98.3858
rwrist 19.0591
rhand -55.1495 -6.33007
rfingers 7.12502
rthumb -27.5231 -34.3383
lclavicle -1.13307e-014 -6.36111e-015
lhumerus -17.4774 -16.0047 86.6083
lradius 60.0177
lwrist -12.8775
lhand -12.2764 28.3094
lfingers 7.12502
lthumb 13.7907 57.8323
rfemur -19.5906 16.2804 14.0366
rtibia 32.5127
rfoot -19.84 -12.0039
rtoes -3.23136
lfemur -30.0929 -7.67399 -5.82449
ltibia 24.211
lfoot 6.03578 14.4355
ltoes -10.4399
501
root 1.25219 18.6189 2.30116 7.55365 -4.17545 2.34319
lowerback 9.05311 -0.0540392 -0.593032
upperback 6.71384 -0.117691 -0.539868
thorax 1.88627 -0.0716498 -0.216302
lowerneck 4.44118 0.379986 -3.6436
upperneck 34.4562 -0.748474 4.8935
head 10.3287 -0.348195 2.36854
rclavicle -1.00883e-014 -1.20265e-014
rhumerus 51.4662 -33.4648 -83.5073
rradius 96.1691
rwrist 19.3631
rhand -54.5361 -5.66128
rfingers 7.12502
rthumb -26.9364 -33.7615
lclavicle -1.00883e-014 -1.20265e-014
lhumerus -16.7029 -16.2555 86.6025
lradius 58.2636
lwrist -12.6871
lhand -12.5753 28.2014
lfingers 7.12502
lthumb 13.5025 57.7437
rfemur -19.9356 16.3285 13.8107
rtibia 32.8004
rfoot -20.022 -12.1685
rtoes -3.6086
lfemur -30.1946 -8.28686 -5.77286
ltibia 23.9926
lfoot 5.47886 15.0668
ltoes -9.82124
502
root 1.29092 18.6028 2.31697 7.73386 -4.07406 2.36735
lowerback 9.27465 -0.00620097 -0.802971
upperback 6.77479 -0.0699593 -0.609224
thorax 1.82934 -0.0533438 -0.173524
lowerneck 4.53212 0.421855 -3.70884
upperneck 34.4105 -0.730283 5.06468
head 10.2924 -0.332312 2.44248
rclavicle -1.10325e-014 -8.54774e-015
rhumerus 51.5488 -33.3696 -82.7166
rradius 93.8873
rwrist 19.3455
rhand -53.9682 -4.51348
rfingers 7.12502
rthumb -26.3929 -32.6964
lclavicle -1.10325e-014 -8.54774e-015
lhumerus -15.9224 -16.499 86.6194
lradius 56.2911
lwrist -12.5122
lhand -12.8275 28.2145
lfingers 7.12502
lthumb 13.2595 57.7727
rfemur -20.2497 16.2495 13.5978
rtibia 33.0999
rfoot -20.1788 -12.1833
rtoes -3.73869
lfemur -30.221 -8.69869 -5.83366
ltibia 23.8552
lfoot 5.02276 15.0955
ltoes -9.66878
503
root 1.33376 18.5892 2.33575 7.93924 -3.89731 2.35047
lowerback 9.4519 0.0208985 -0.94457
upperback 6.8406 -0.0451556 -0.642257
thorax 1.80167 -0.0449456 -0.130101
lowerneck 4.60444 0.444003 -3.69924
upperneck 34.2938 -0.692076 5.06581
head 10.2312 -0.313179 2.4406
rclavicle -1.88348e-014 -3.18055e-015
rhumerus 51.3084 -33.281 -81.5216
rradius 91.5616
rwrist 19.1905
rhand -53.3662 -3.73102
rfingers 7.12502
rthumb -25.8165 -31.9991
lclavicle -1.88348e-014 -3.18055e-015
lhumerus -14.9889 -16.8608 86.684
lradius 54.0746
lwrist -12.7722
lhand -12.636 28.4474
lfingers 7.12502
lthumb 13.4441 57.9935
rfemur -20.5353 15.9851 13.4324
rtibia 33.3432
rfoot -20.3226 -12.0791
rtoes -3.70909
lfemur -30.3158 -8.74212 -6.00853
ltibia 23.8453
lfoot 4.85428 14.5896
ltoes -10.3615
504
root 1.37863 18.579 2.35583 8.19348 -3.68912 2.30599
lowerback 9.56487 0.0548187 -1.02219
upperback 6.93262 -0.00571905 -0.706741
thorax 1.83644 -0.0265994 -0.156362
lowerneck 4.61289 0.441512 -3.51978
upperneck 34.1043 -0.667238 4.97806
head 10.1539 -0.286858 2.37375
rclavicle -2.45996e-015 -1.0635e-014
rhumerus 50.9575 -33.2459 -80.313
rradius 89.2384
rwrist 19.0175
rhand -52.573 -3.55656
rfingers 7.12502
rthumb -25.0566 -31.9329
lclavicle -2.45996e-015 -1.0635e-014
lhumerus -13.9769 -17.3009 86.6773
lradius 51.8501
lwrist -13.4037
lhand -11.9373 28.7272
lfingers 7.12502
lthumb 14.1175 58.2276
rfemur -20.8148 15.8277 13.2758
rtibia 33.5025
rfoot -20.4916 -12.1153
rtoes -3.83118
lfemur -30.5167 -8.59604 -6.20613
ltibia 23.9367
lfoot 4.60844 13.743
ltoes -11.616
505
root 1.42187 18.5662 2.37069 8.49707 -3.57692 2.0227
lowerback 9.66609 0.114818 -0.952222
upperback 7.02252 0.0779409 -0.690382
thorax 1.875 0.0170319 -0.185395
lowerneck 4.65066 0.467582 -3.39992
upperneck 33.8853 -0.604028 4.90528
head 10.0583 -0.249374 2.32476
rclavicle 1.36664e-015 3.97569e-016
rhumerus 50.5565 -33.076 -79.0082
rradius 86.7985
rwrist 18.7275
rhand -51.988 -2.81261
rfingers 7.12502
rthumb -24.496 -31.266
lclavicle 1.36664e-015 3.97569e-016
lhumerus -12.9684 -17.6908 86.7047
lradius 49.6075
lwrist -13.8488
lhand -11.4644 29.0052
lfingers 7.12502
lthumb 14.5731 58.4733
rfemur -21.1171 15.9213 13.3586
rtibia 33.5789
rfoot -20.6159 -12.2782
rtoes -3.99633
lfemur -30.7714 -8.69452 -5.97547
ltibia 24.0474
lfoot 3.75257 13.127
ltoes -12.7291
506
root 1.46701 18.5526 2.38092 8.82584 -3.55194 1.54781
lowerback 9.8392 0.141249 -0.776631
upperback 7.01772 0.122355 -0.576586
thorax 1.77521 0.0430016 -0.170085
lowerneck 4.86212 0.575742 -3.53601
upperneck 33.702 -0.439977 4.89424
head 9.94083 -0.193617 2.34987
rclavicle -4.08751e-015 -5.31749e-015
rhumerus 49.9237 -32.5915 -77.4493
rradius 84.3012
rwrist 18.4041
rhand -51.6007 -2.19488
rfingers 7.12502
rthumb -24.1247 -30.6981
lclavicle -4.08751e-015 -5.31749e-015
lhumerus -12.184 -17.9621 86.8653
lradius 47.3116
lwrist -13.9968
lhand -12.1362 29.1069
lfingers 7.12502
lthumb 13.9258 58.6206
rfemur -21.4677 16.062 13.6198
rtibia 33.6098
rfoot -20.636 -12.3454
rtoes -4.05668
lfemur -31.031 -9.15391 -5.35719
ltibia 24.1193
lfoot 2.71756 13.1855
ltoes -12.9781
507
root 1.51576 18.5462 2.39766 9.0737 -3.53024 1.29277
lowerback 10.0782 0.115193 -0.832322
upperback 6.93379 0.0797326 -0.478718
thorax 1.55705 0.0183579 -0.0345081
lowerneck 5.30354 0.727527 -3.84161
upperneck 33.5165 -0.208408 4.84326
head 9.77923 -0.133379 2.39283
rclavicle -1.35422e-014 -6.19338e-015
rhumerus 48.9403 -31.8024 -75.6073
rradius 81.8073
rwrist 18.1369
rhand -50.655 -2.66339
rfingers 7.12502
rthumb -23.2176 -31.2839
lclavicle -1.35422e-014 -6.19338e-015
lhumerus -11.7154 -18.0717 87.1595
lradius 45.0362
lwrist -14.3556
lhand -12.7597 29.0569
lfingers 7.12502
lthumb 13.3248 58.6108
rfemur -21.7021 16.0175 13.6651
rtibia 33.627
rfoot -20.6371 -12.3082
rtoes -4.20879
lfemur -31.187 -9.66153 -5.00606
ltibia 24.1262
lfoot 2.02008 13.5199
ltoes -12.883
508
root 1.56269 18.5401 2.41274 9.34205 -3.50096 1.2071
lowerback 10.2283 0.129111 -0.974838
upperback 7.00014 0.0857586 -0.548336
thorax 1.54511 0.0179472 -0.0272472
lowerneck 5.32135 0.793578 -3.99456
upperneck 33.2654 -0.121225 4.91924
head 9.67414 -0.104492 2.44604
rclavicle 5.56597e-015 -1.2424e-014
rhumerus 48.001 -31.1897 -73.9712
rradius 79.4267
rwrist 18.0136
rhand -49.0385 -2.83636
rfingers 7.12502
rthumb -21.666 -31.6441
lclavicle 5.56597e-015 -1.2424e-014
lhumerus -10.8843 -18.4778 87.1464
lradius 42.7967
lwrist -14.8284
lhand -12.274 29.0159
lfingers 7.12502
lthumb 13.793 58.5386
rfemur -21.9645 16.0477 13.5094
rtibia 33.6496
rfoot -20.726 -12.3292
rtoes -4.01257
lfemur -31.3688 -9.93884 -4.90404
ltibia 24.0768
lfoot 1.60165 13.6685
ltoes -12.9264
509
root 1.61162 18.5357 2.42505 9.72485 -3.40297 1.2292
lowerback 10.0837 -0.0987115 -1.39614
upperback 7.17673 -0.242877 -0.475276
thorax 1.81443 -0.164233 0.311852
lowerneck 5.14572 1.15874 -4.71979
upperneck 33.0346 0.387661 5.04648
head 9.58577 0.0554867 2.64393
rclavicle 6.06293e-015 -6.11263e-015
rhumerus 47.5842 -29.7754 -72.4536
rradius 76.864
rwrist 17.9439
rhand -47.407 -2.20796
rfingers 7.12502
rthumb -20.0986 -31.1884
lclavicle 6.06293e-015 -6.11263e-015
lhumerus -9.86209 -18.0614 87.0904
lradius 40.6166
lwrist -15.645
lhand -11.326 29.1004
lfingers 7.12502
lthumb 14.7064 58.5588
rfemur -22.3601 16.0015 13.1991
rtibia 33.6985
rfoot -20.8059 -12.387
rtoes -3.99766
lfemur -31.7038 -10.1278 -4.94334
ltibia 23.9811
lfoot 1.37724 13.6077
ltoes -13.1887
510
root 1.66331 18.5322 2.43846 10.1152 -3.32543 1.19774
lowerback 10.06 0.102656 -1.32226
upperback 7.43837 0.0340781 -0.828445
thorax 2.09818 -0.0172047 -0.11817
lowerneck 4.6208 0.936326 -3.87959
upperneck 32.9385 0.0713144 5.06011
head 9.6608 0.0162758 2.48333
rclavicle 4.67144e-015 0
rhumerus 46.7944 -29.9154 -70.9283
rradius 74.2835
rwrist 18.0584
rhand -45.7717 -1.47462
rfingers 7.12502
rthumb -18.5261 -30.6124
lclavicle 4.67144e-015 0
lhumerus -8.41873 -19.4417 86.5947
lradius 38.535
lwrist -16.7203
lhand -10.9379 29.0871
lfingers 7.12502
lthumb 15.0803 58.5178
rfemur -22.775 15.9754 12.9371
rtibia 33.7792
rfoot -20.8789 -12.454
rtoes -4.07893
lfemur -32.0662 -10.4403 -4.86553
ltibia 23.9103
lfoot 0.911719 13.6874
ltoes -12.4853
511
root 1.71517 18.5257 2.45029 10.4538 -3.29518 1.1326
lowerback 10.2691 0.159203 -1.44996
upperback 7.52274 0.0971601 -1.01277
thorax 2.07347 0.0137855 -0.242841
lowerneck 4.34406 0.903206 -3.46456
upperneck 32.9565 0.0505531 4.9288
head 9.72018 0.0447222 2.36367
rclavicle 1.2921e-014 5.76476e-015
rhumerus 45.8242 -29.2275 -69.2744
rradius 71.7416
rwrist 18.3304
rhand -44.0458 -0.634878
rfingers 7.12502
rthumb -16.8653 -29.9225
lclavicle 1.2921e-014 5.76476e-015
lhumerus -7.45855 -20.3277 86.3168
lradius 36.4648
lwrist -17.553
lhand -11.5096 28.9117
lfingers 7.12502
lthumb 14.5295 58.3829
rfemur -23.152 16.0424 12.7149
rtibia 33.865
rfoot -20.9633 -12.5651
rtoes -4.3236
lfemur -32.4027 -10.7749 -4.7285
ltibia 23.8808
lfoot 0.411408 13.8916
ltoes -11.6734
512
root 1.7666 18.514 2.46067 10.8178 -3.22449 0.932487
lowerback 10.4196 0.149467 -1.50231
upperback 7.58297 0.0782829 -1.07165
thorax 2.05548 0.00369158 -0.273219
lowerneck 4.12628 0.941513 -3.40158
upperneck 33.0619 0.142066 4.79256
head 9.79634 0.0821807 2.31327
rclavicle -2.88238e-015 5.36719e-015
rhumerus 44.7162 -28.1224 -67.4488
rradius 69.2838
rwrist 18.6205
rhand -42.4617 0.0625965
rfingers 7.12502
rthumb -15.3399 -29.3484
lclavicle -2.88238e-015 5.36719e-015
lhumerus -6.60342 -21.2395 86.1868
lradius 34.2763
lwrist -18.0377
lhand -11.3308 28.9037
lfingers 7.12502
lthumb 14.7018 58.3624
rfemur -23.5649 16.1006 12.6399
rtibia 33.9339
rfoot -21.0624 -12.678
rtoes -4.3561
lfemur -32.7677 -10.7445 -4.57813
ltibia 23.8802
lfoot 0.168989 13.762
ltoes -11.9834
